<svg id="Capa_1" data-name="Capa 1" xmlns="http://www.w3.org/2000/svg" viewBox="0 0 85.04 16.15"><defs><style>.cls-1,.cls-2{fill:#3a3a3a;}.cls-2{opacity:0.81;}</style></defs><path class="cls-1" d="M10.49,12.33c0,1.47,0,2.64.09,3.58h-3l-.16-1.57H7.36A4,4,0,0,1,3.9,16.15c-2.24,0-3.9-1.41-3.9-4.83V4.82H3.47v6c0,1.61.52,2.58,1.72,2.58a1.86,1.86,0,0,0,1.72-1.2L7,11.42V4.82h3.46v7.51"/><path class="cls-1" d="M13.23,8.35c0-1.37-.05-2.55-.09-3.53h3l.16,1.53h.07a4.05,4.05,0,0,1,3.42-1.78c2.26,0,4,1.5,4,4.77v6.57H20.3V9.76c0-1.43-.5-2.4-1.75-2.4a1.83,1.83,0,0,0-1.74,1.29,2.42,2.42,0,0,0-.14.86v6.4H13.23V8.35"/><path class="cls-1" d="M30,1.74a1.74,1.74,0,0,1-1.86,1.73,1.7,1.7,0,0,1-1.79-1.73A1.68,1.68,0,0,1,28.2,0,1.72,1.72,0,0,1,30,1.74M26.49,4.82h3.44V15.9H26.49V4.82"/><path class="cls-1" d="M31.8,13.93l3.49-4.37c.63-.76,1.13-1.3,1.77-2v0H32.18V4.82h9.07V6.89l-3.34,4.18c-.61.72-1.17,1.42-1.81,2v.05h5.32v2.75H31.8v-2"/><path class="cls-1" d="M52.52,13.2a19.18,19.18,0,0,0,.16,2.71h-3.1l-.2-1.11h-.07a4,4,0,0,1-3.17,1.35,3.4,3.4,0,0,1-3.58-3.4c0-2.87,2.58-4.26,6.5-4.22V8.35c0-.58-.31-1.42-2-1.42a6.15,6.15,0,0,0-3,.84l-.64-2.21a8.92,8.92,0,0,1,4.31-1c3.69,0,4.86,2.18,4.86,4.78V13.2m-3.35-2.53c-1.81,0-3.22.4-3.22,1.74a1.24,1.24,0,0,0,1.36,1.32,1.9,1.9,0,0,0,1.8-1.27l.06-.6V10.67"/><path class="cls-1" d="M55.23,8.47c0-1.63,0-2.69-.09-3.65h3l.12,2h.09a3.26,3.26,0,0,1,3-2.28,2.65,2.65,0,0,1,.72.06V7.87a4.44,4.44,0,0,0-.92-.1,2.21,2.21,0,0,0-2.36,1.74l-.07.78v5.62H55.23V8.47"/><path class="cls-1" d="M63.45,16.15a1.33,1.33,0,0,1-1.31-1.42A1.34,1.34,0,0,1,63.5,13.3a1.33,1.33,0,0,1,1.34,1.43,1.33,1.33,0,0,1-1.36,1.42h0"/><path class="cls-2" d="M68.41,10.77a3.51,3.51,0,0,0,3.76,3.82,7.25,7.25,0,0,0,3-.57l.33,1.42a8.66,8.66,0,0,1-3.64.71c-3.37,0-5.39-2.25-5.39-5.56s1.94-5.9,5.13-5.9c3.59,0,4.54,3.15,4.54,5.17a7.67,7.67,0,0,1-.07.91h-7.7m5.84-1.42c0-1.26-.52-3.23-2.77-3.23-2,0-2.9,1.86-3,3.23h5.82"/><path class="cls-2" d="M78.35,13.87a5.35,5.35,0,0,0,2.64.79c1.44,0,2.12-.73,2.12-1.64s-.57-1.48-2-2c-2-.7-2.89-1.79-2.89-3.09C78.18,6.13,79.6,4.7,82,4.7a5.59,5.59,0,0,1,2.69.66l-.5,1.46a4.15,4.15,0,0,0-2.24-.63c-1.18,0-1.83.67-1.83,1.49S80.73,9,82.17,9.54c1.89.72,2.87,1.68,2.87,3.31,0,1.91-1.5,3.3-4.1,3.3a6.15,6.15,0,0,1-3.08-.77l.49-1.51"/></svg>